<?xml version="1.0" encoding="iso-8859-1"?><!-- Generator: Adobe Illustrator 22.1.0, SVG Export Plug-In . SVG Version: 6.00 Build 0)  --><svg xmlns="http://www.w3.org/2000/svg" xmlns:xlink="http://www.w3.org/1999/xlink" viewBox="0 0 24 24" width="384px" height="384px"><g id="Outlined"><path d="M15.736,16.573c-0.171,0-0.257-0.086-0.428-0.171c-1.283-0.77-2.908-1.197-4.618-1.197c-0.941,0-1.967,0.171-2.822,0.342c-0.171,0-0.342,0.086-0.428,0.086c-0.342,0-0.599-0.257-0.599-0.599s0.171-0.599,0.513-0.599c1.112-0.257,2.224-0.428,3.421-0.428c1.967,0,3.763,0.513,5.303,1.368c0.171,0.171,0.342,0.257,0.342,0.599C16.249,16.402,15.992,16.573,15.736,16.573z"/><path d="M16.677,14.158c-0.171,0-0.342-0.086-0.513-0.171c-1.454-0.941-3.507-1.454-5.73-1.454c-1.112,0-2.138,0.171-2.908,0.342c-0.171,0.086-0.257,0.086-0.428,0.086c-0.428,0-0.684-0.342-0.684-0.684c0-0.428,0.171-0.599,0.599-0.77c1.026-0.257,2.053-0.513,3.507-0.513c2.395,0,4.618,0.599,6.5,1.711c0.257,0.171,0.428,0.428,0.428,0.684C17.361,13.816,17.104,14.158,16.677,14.158z"/><path d="M17.788,11.421c-0.171,0-0.257-0.086-0.513-0.171c-1.711-0.941-4.191-1.539-6.586-1.539c-1.197,0-2.48,0.171-3.592,0.428c-0.171,0-0.257,0.086-0.513,0.086c-0.513,0.086-0.855-0.342-0.855-0.855c0-0.513,0.257-0.77,0.599-0.855C7.696,8.171,9.15,8,10.69,8c2.651,0,5.388,0.599,7.526,1.711c0.257,0.171,0.513,0.428,0.513,0.855C18.644,11.079,18.302,11.421,17.788,11.421z"/><circle style="fill:none;stroke:#000000;stroke-width:2;stroke-miterlimit:10;" cx="12" cy="12" r="9"/></g></svg>